# xmcd
#
# Track frame offsets:
#	150
#	13065
#	25082
#	39920
#	54060
#	65891
#	81368
#	95249
#	115489
#	134529
#	152535
#	165208
#	178945
#	202506
#	213906
#
# Disc length: 3036 seconds
#
# Revision: 1
# Processed by: cddbd v1.5.2PL0 Copyright (c) Steve Scherf et al.
# Submitted via: EasyCDDAExtractor 16.1.0.1
#
DISCID=c10bda0f
DTITLE=Artistes divers - Blues Story #9
DYEAR=1998
DGENRE=Blues
TTITLE0=Elmore James - Dust My Broom
TTITLE1=Little Walter - Mellow Down Easy
TTITLE2=Willie Dixon - Pain in My Heart
TTITLE3=Jammes Cotton - Born in Chicago (Live)
TTITLE4=Charlie Musselwhite - Leaving Blues
TTITLE5=Sonny Boy Williamson - Nine Below Zero
TTITLE6=Paul Butterfield Blues Band - The Night Ain't Long Enough
TTITLE7=Mike Bloomfield - Stagger Lee
TTITLE8=Larry Garner - Don't Start Crying
TTITLE9=Joanna Connor - Nothin' but the Blues
TTITLE10=Muddy Waters - I Just Want to Make Love to You
TTITLE11=Hound Dog Taylor - 55Th Street Boogie
TTITLE12=Koko Taylor - I Cried Like a Baby
TTITLE13=Etta James - I'd Rather Go Blind
TTITLE14=Howlin' Wolf - Smokestack Lightnin'
EXTD=
EXTT0=
EXTT1=
EXTT2=
EXTT3=
EXTT4=
EXTT5=
EXTT6=
EXTT7=
EXTT8=
EXTT9=
EXTT10=
EXTT11=
EXTT12=
EXTT13=
EXTT14=
PLAYORDER=
